PathFileType	4	(X/Y/Z)	D:\TRACE\spotREDO_2-26-24\spot_justArm_Motion_3_1-v60.trc
DataRate	CameraRate	NumFrames	NumMarkers	Units	OrigDataRate	OrigDataStartFrame	OrigNumFrames
100.00	100.00	      38	9	mm	100.00	4376	      7000
Frame#	Time	front left toe			Front right toe			aft left toe			aft right toe			Arm			FL body			FR body			AL Body			AR Body			
		X1	Y1	Z1	X2	Y2	Z2	X3	Y3	Z3	X4	Y4	Z4	X5	Y5	Z5	X6	Y6	Z6	X7	Y7	Z7	X8	Y8	Z8	X9	Y9	Z9	

4376	43.750	-195.97725	8.04305	-178.11320	226.56123	7.89652	-176.82153	-175.23602	49.58511	450.19870	238.76076	49.83558	412.43790	-17.98433	598.35962	-838.76489	-54.43711	521.04559	-232.13316	102.15237	525.39722	-238.90677	-25.48920	605.54712	647.00043	122.40878	606.19922	642.82397	
4377	43.760	-196.03430	8.22684	-178.02486	226.41750	8.34321	-176.58241	-175.17355	48.99290	450.50229	238.75534	49.31023	412.54675	-18.00376	598.18280	-838.64746	-54.29038	521.12854	-232.02263	102.23455	525.55286	-238.76700	-25.34710	605.12250	647.12659	122.78539	605.58618	643.01379	
4378	43.770	-195.98283	8.41392	-177.94302	226.43890	8.46899	-176.53893	-175.15060	48.58377	450.54776	238.74974	48.78185	412.76831	-18.00213	597.93207	-838.48792	-54.10098	521.38434	-231.81158	102.28033	525.67505	-238.70235	-25.25836	604.62238	647.29175	122.98889	605.21484	643.18652	
4379	43.780	-196.01401	8.71461	-177.74219	226.58316	8.43945	-176.49062	-175.29541	48.41666	450.59555	238.62535	48.19854	413.05032	-17.84244	597.64355	-838.21979	-53.99424	521.55859	-231.60367	102.37863	525.79834	-238.45563	-25.18332	604.35571	647.40375	123.60618	604.75500	643.82001	
4380	43.790	-196.10922	9.13483	-177.52191	226.54875	8.72641	-176.29041	-175.49924	47.81800	450.81616	238.57126	47.89427	413.25223	-17.95298	597.66412	-838.27643	-54.01467	521.72821	-231.48027	102.43140	525.87115	-238.29666	-25.02238	604.06323	647.51758	123.30096	604.59546	643.47327	
4381	43.800	-196.42758	9.47010	-177.38002	226.52629	8.80070	-176.22014	-175.49525	47.39088	450.92462	238.62946	47.59761	413.50876	-17.92457	597.56189	-838.20398	-54.29385	522.06097	-231.81143	102.54091	525.93304	-238.12807	-24.85549	603.72437	647.65833	123.32104	604.27576	643.69800	
4382	43.810	-196.60606	9.82501	-177.29227	226.38782	8.99747	-176.17404	-175.63397	46.76121	451.16843	238.33414	47.01281	413.68301	-17.77614	597.44073	-838.15021	-54.25946	522.23334	-231.69032	102.65556	526.03406	-237.97833	-24.63644	603.38574	647.87659	123.71039	603.71149	643.95605	
4383	43.820	-196.78790	10.09080	-177.33942	226.15329	9.26074	-175.97243	-175.82695	46.32095	451.20258	238.29564	46.57961	413.74542	-17.74572	597.44659	-838.02411	-53.77312	522.29272	-231.04465	102.75620	526.13489	-237.87306	-24.59233	603.08167	648.00317	123.97007	603.17969	644.14459	
4384	43.830	-196.90376	10.27258	-177.19905	226.07083	9.68508	-175.58484	-176.04863	45.68002	451.37051	238.20740	45.96499	413.94781	-17.45437	597.34381	-837.80371	-53.69704	522.44293	-230.91107	102.91101	526.26141	-237.73643	-24.43086	602.73566	648.11774	123.90846	602.79395	644.19965	
4385	43.840	-196.90773	10.26955	-176.67281	225.91457	10.16834	-175.22250	-176.19302	45.16237	451.66614	237.99271	45.28532	414.00598	-15.94984	597.29401	-836.57458	-53.49693	522.45154	-230.76355	102.97219	526.31586	-237.63979	-24.19875	602.25208	648.40973	123.81285	602.30554	644.36957	
4386	43.850	-197.11484	10.54448	-176.46634	225.78384	10.38755	-174.93643	-176.29936	44.65353	451.97192	237.66483	44.71832	414.11511	-17.03456	597.26691	-837.52942	-53.39014	522.50006	-230.71207	103.01365	526.36615	-237.53697	-24.10280	601.71198	648.51172	124.02803	601.72516	644.48199	
4387	43.860	-197.23769	10.75174	-176.36493	225.52260	10.26610	-175.02209	-176.44727	44.13725	452.27203	237.84985	44.45797	414.60486	-16.95737	597.28705	-837.41351	-53.28293	522.52148	-230.63098	103.12919	526.45490	-237.33064	-24.07426	601.35852	648.58990	124.07683	601.32697	644.58447	
4388	43.870	-197.45605	11.02902	-176.14418	225.14925	10.48170	-174.83626	-176.57835	43.60972	452.41318	237.76979	44.33461	414.94180	-16.88137	597.30219	-837.40753	-53.26830	522.63171	-230.51920	103.11098	526.46997	-237.41437	-24.14965	601.03906	648.67554	124.03279	601.04474	644.85516	
4389	43.880	-197.68614	11.37124	-175.89584	224.94061	10.54874	-174.75684	-176.79254	43.04923	452.68723	237.37564	43.47167	415.13480	-16.83120	597.27759	-837.33350	-53.21007	522.71155	-230.42159	103.22871	526.53088	-237.18039	-24.01241	600.65039	649.08661	123.87972	600.65466	645.07251	
4390	43.890	-197.84148	11.66996	-175.67661	224.89748	10.79690	-174.62773	-176.92574	42.37673	452.89133	237.16179	42.62503	415.31787	-16.70593	597.33698	-837.19598	-53.04505	522.77899	-230.28810	103.27727	526.59589	-237.09181	-23.84102	600.32922	649.27820	124.11393	600.24579	645.21802	
4391	43.900	-197.94156	11.81617	-175.46184	224.78482	11.04486	-174.26302	-177.17317	41.78373	453.03229	236.54964	42.02797	415.24686	-16.54071	597.43213	-836.93237	-53.05373	522.97858	-230.26730	103.27518	526.59827	-237.01447	-23.83954	599.96423	649.49799	124.16917	599.83417	645.42249	
4392	43.910	-198.14211	12.07393	-175.32864	224.64842	11.65620	-173.76036	-177.59660	41.42323	453.00204	236.30753	41.76134	415.27542	-16.45448	597.49548	-836.77051	-53.02003	523.06891	-230.19875	103.27294	526.62164	-236.91864	-23.94885	599.60382	649.67755	124.19424	599.04718	645.70874	
4393	43.920	-198.61699	12.52221	-175.23282	224.21404	11.63275	-173.71458	-177.82454	40.93991	453.13580	235.91556	41.04565	415.55026	-16.45848	597.48590	-836.71692	-52.96862	523.25482	-230.07852	103.28843	526.66547	-236.78441	-24.13484	599.14661	649.81146	124.01849	598.71521	645.70667	
4394	43.930	-198.91313	12.77627	-175.00410	223.95163	11.96496	-173.59135	-178.23398	40.29757	453.38162	235.56871	40.36921	415.79968	-16.44062	597.56244	-836.56299	-53.02444	523.47620	-229.92453	103.23992	526.74225	-236.69992	-24.27819	598.68402	649.91711	123.78798	598.29102	645.83026	
4395	43.940	-199.04173	13.05545	-174.73491	223.63821	12.17773	-173.39838	-178.48251	39.70599	453.59286	235.73576	39.96935	416.26178	-16.36489	597.57086	-836.37427	-53.08017	523.62708	-229.81265	103.23826	526.78424	-236.57941	-24.28664	598.31824	650.03601	124.01208	597.65302	646.16010	
4396	43.950	-199.70486	13.73858	-174.13788	223.28236	12.26773	-173.30818	-178.87700	38.96996	453.70398	235.49690	39.47227	416.63248	-16.38297	597.56000	-836.31592	-53.10368	523.70471	-229.63623	102.98158	526.87256	-236.44160	-24.25048	597.82013	650.31946	124.11147	597.17944	646.37354	
4397	43.960	-199.63065	13.67486	-174.13655	222.98683	12.49915	-172.94521	-179.12721	38.50259	454.06516	235.45406	38.91252	416.81848	-16.37796	597.58228	-836.21558	-53.14857	523.60150	-229.45479	102.97931	526.78967	-236.34998	-24.34794	597.46222	650.48865	124.00768	596.97412	646.48584	
4398	43.970	-199.79781	13.78469	-173.99438	222.76712	13.03744	-172.32497	-179.29250	38.02054	454.51477	235.22450	38.14956	416.99515	-16.49630	597.85657	-836.08539	-53.23547	523.45044	-229.33397	103.24203	526.54657	-236.15904	-24.32497	597.22150	650.59857	123.82336	596.61700	646.67358	
4399	43.980	-199.97569	14.03658	-173.78842	222.69290	13.00258	-172.31125	-179.51909	37.14508	454.82047	234.85857	37.77975	417.05209	-16.34907	598.56909	-835.78436	-53.40515	523.39801	-229.21970	103.18259	526.43469	-235.93483	-24.45923	596.94385	650.67383	123.60204	596.16168	646.81976	
4400	43.990	-200.37589	14.42104	-173.52289	221.97050	13.23002	-172.33415	-179.69943	36.24861	454.85037	234.23877	37.04701	417.26282	-16.45909	599.42493	-835.91223	-53.55246	523.42926	-229.10646	103.10922	526.40051	-235.72406	-24.41866	596.24115	650.80609	123.53918	595.62286	646.80121	
4401	44.000	-200.62357	14.79171	-173.38884	221.73477	13.55943	-172.09586	-180.09306	35.70599	455.04773	233.74135	36.15032	417.48511	-16.54659	600.76611	-836.01508	-53.63479	523.55066	-229.01109	103.08662	526.38440	-235.45432	-24.78277	595.82300	650.99597	123.68126	594.77435	647.16370	
4402	44.010	-201.24788	15.35776	-173.10120	221.18544	13.77033	-172.06271	-180.54330	35.20420	455.41223	233.12532	35.52989	417.77176	-16.80808	601.71997	-835.90332	-53.75725	523.77820	-228.85300	102.54649	526.54480	-235.58955	-24.73989	595.07025	651.24768	123.40293	594.17993	647.35358	
4403	44.020	-201.52716	15.51921	-172.89481	221.04579	14.01424	-171.70987	-181.01378	34.40272	455.63004	233.24352	35.23912	418.03946	-17.05684	602.92444	-835.87701	-54.09291	524.07013	-228.61504	102.32996	526.67938	-235.34422	-24.87829	594.48102	651.47662	123.25476	593.61566	647.54956	
4404	44.030	-201.74870	15.67568	-172.47984	220.71652	14.48659	-171.18408	-181.31447	33.60694	455.55533	232.98145	34.52612	418.31598	-17.11741	603.86096	-835.69666	-54.30972	524.39001	-228.49910	102.05228	526.99896	-235.20038	-25.12917	593.94745	651.65308	123.33968	592.65033	647.80859	
4405	44.040	-202.08331	15.86873	-172.26596	220.32484	14.69008	-171.04825	-181.61307	33.06677	455.71335	232.86198	33.78570	418.56168	-17.32843	604.73187	-835.48755	-54.41157	524.64661	-228.43752	102.15142	527.25745	-235.05142	-25.18236	593.14325	651.90314	123.53464	592.07416	648.79810	
4406	44.050	-202.45125	16.46137	-172.11127	220.18181	14.92940	-170.95940	-181.76392	32.44267	456.01749	232.56186	33.30007	418.88702	-17.65236	605.36346	-835.38025	-55.06956	525.16583	-228.71574	101.91666	527.63562	-234.88329	-25.16887	592.21466	652.35480	123.04790	591.39789	648.54816	
4407	44.060	-202.59528	16.66311	-171.94566	219.85522	15.33091	-170.88213	-182.08765	31.86344	456.25812	232.21288	32.61334	419.18695	-18.07231	605.88696	-835.20221	-54.85204	525.18719	-227.84390	101.77365	527.98859	-234.71007	-25.44252	591.66333	652.78992	122.89582	590.41498	648.71533	
4408	44.070	-202.47345	16.66348	-171.61981	219.29474	15.49276	-170.90669	-182.62920	31.20549	456.51941	231.57764	32.02091	419.14990	-18.21452	606.25922	-835.03668	-55.17953	525.73389	-227.49065	101.01418	528.44098	-234.43172	-25.55347	590.84747	653.05756	122.78336	589.66290	648.94482	
4409	44.080	-203.55339	17.48450	-171.47498	218.82993	15.85773	-170.60693	-183.04494	30.61115	456.74933	230.85136	31.29775	419.34665	-18.50489	606.71783	-834.63696	-55.25748	526.31256	-227.11673	100.70094	528.97498	-234.12767	-25.66718	590.19501	653.27686	122.37425	589.06018	649.07117	
4410	44.090	-203.96452	17.73204	-171.27818	218.38820	16.12725	-170.31671	-183.52721	29.91881	457.13986	230.46722	30.53630	419.45236	-18.76415	606.82538	-834.52539	-55.71236	526.89972	-227.16858	100.83774	529.45178	-233.83749	-25.32558	589.25439	653.44824	122.44379	588.29211	649.42395	
4411	44.100	-204.45148	18.12907	-171.13817	217.91913	16.43883	-169.83670	-183.72348	29.11426	457.48602	230.46188	29.90318	419.93939	-19.01874	606.88269	-834.34576	-56.17464	527.35095	-226.86876	100.40041	529.70587	-233.70401	-25.97324	588.87024	653.74072	122.22799	587.76135	649.73962	
4412	44.110	-204.54742	18.44330	-171.08803	217.64282	16.70153	-169.69952	-184.07918	28.53975	457.68149	230.30939	29.37781	420.27176	-18.83068	606.80328	-833.70233	-56.60366	527.80011	-226.63454	99.92405	529.95398	-233.39359	-25.98304	588.34045	654.11035	121.92419	587.14795	650.03131	
4413	44.120	-205.00696	18.82755	-170.78529	217.19228	16.88692	-169.67439	-184.28546	27.77834	457.98782	230.18129	29.11869	420.54028	-19.45291	606.52661	-833.80322	-56.88793	528.03406	-226.42249	99.43172	530.32446	-233.37682	-26.09276	587.95740	654.59613	121.84852	586.53613	650.33862	
